<?xml version="1.0" encoding="utf-8"?>
<!-- Generator: Adobe Illustrator 19.0.0, SVG Export Plug-In . SVG Version: 6.00 Build 0)  -->
<svg version="1.1" xmlns="http://www.w3.org/2000/svg" xmlns:xlink="http://www.w3.org/1999/xlink" x="0px" y="0px"
	 viewBox="0 0 2223.4 2226.1" style="enable-background:new 0 0 2223.4 2226.1;" xml:space="preserve">
<style type="text/css">
	.st0{fill:url(#SVGID_1_);}
	.st1{fill:url(#SVGID_2_);}
	.st2{fill-rule:evenodd;clip-rule:evenodd;fill:url(#SVGID_3_);}
	.st3{fill:url(#SVGID_4_);}
	.st4{fill:url(#SVGID_5_);}
	.st5{fill:url(#SVGID_6_);}
	.st6{fill:url(#SVGID_7_);}
	.st7{fill:url(#SVGID_8_);}
	.st8{fill-rule:evenodd;clip-rule:evenodd;fill:url(#SVGID_9_);}
	.st9{fill:url(#SVGID_10_);}
	.st10{fill:url(#SVGID_11_);}
	.st11{fill-rule:evenodd;clip-rule:evenodd;fill:url(#SVGID_12_);}
	.st12{fill:url(#SVGID_13_);}
	.st13{fill:url(#SVGID_14_);}
	.st14{fill-rule:evenodd;clip-rule:evenodd;fill:url(#SVGID_15_);}
	.st15{fill:url(#SVGID_16_);}
	.st16{fill:url(#SVGID_17_);}
	.st17{fill-rule:evenodd;clip-rule:evenodd;fill:url(#SVGID_18_);}
</style>
<g id="Layer_1">
</g>
<g id="Isolation_Mode">
	<g>
		<g>
			<linearGradient id="SVGID_1_" gradientUnits="userSpaceOnUse" x1="1118.0836" y1="-22.2231" x2="1099.0037" y2="273.5154">
				<stop  offset="0" style="stop-color:#8DC63F"/>
				<stop  offset="1" style="stop-color:#006838"/>
			</linearGradient>
			<path class="st0" d="M1533.4,210.7c19-19.7,36.7-40.8,52.9-63.1l11.1-15.3c-147.3-73.9-313.4-115.6-489.2-116.2
				c-175.8,0.5-342,42.3-489.2,116.2l11.1,15.3c16.8,23.1,35.2,44.9,55,65.3c129.6-60.6,274.2-94.4,426.6-94.4
				C1262.2,118.5,1405.1,151.5,1533.4,210.7z"/>
			<linearGradient id="SVGID_2_" gradientUnits="userSpaceOnUse" x1="1127.0311" y1="-21.6456" x2="1107.9512" y2="274.0929">
				<stop  offset="0" style="stop-color:#8DC63F"/>
				<stop  offset="1" style="stop-color:#006838"/>
			</linearGradient>
			<path class="st1" d="M832.6,322.6l47.5,24.7c0,0,96.4,54,223.7,54c1.5,0,2.9,0,4.4,0c1.5,0,2.9,0,4.4,0
				c127.3,0,223.7-54,223.7-54l47.5-24.7c30.5-15.9,59.8-34.7,87.1-55.8c6.2-4.8,12.2-9.7,18.2-14.7
				c-115.7-50-243.3-77.7-377.3-77.7c-135.8,0-265,28.4-382,79.7c5.2,4.3,10.4,8.5,15.8,12.7C772.7,287.9,802,306.7,832.6,322.6z"/>
			<linearGradient id="SVGID_3_" gradientUnits="userSpaceOnUse" x1="1108.1118" y1="848.0227" x2="1108.1118" y2="334.6353">
				<stop  offset="0" style="stop-color:#006838"/>
				<stop  offset="1" style="stop-color:#8DC63F"/>
			</linearGradient>
			<path class="st2" d="M891.9,576.3c0-141.3,96.8-255.8,216.2-255.8c119.4,0,216.2,114.5,216.2,255.8
				c0,141.3-96.8,255.8-216.2,255.8C988.7,832,891.9,717.5,891.9,576.3z"/>
		</g>
		<g>
			<linearGradient id="SVGID_4_" gradientUnits="userSpaceOnUse" x1="134.8657" y1="552.2448" x2="459.8827" y2="751.8168">
				<stop  offset="0" style="stop-color:#414042"/>
				<stop  offset="1" style="stop-color:#000000"/>
			</linearGradient>
			<path class="st3" d="M537.7,297.6c-7.5-26.1-16.8-51.7-28-76.5l-7.7-17.2c-137.6,90.6-256.8,213.6-345.2,365.6
				C69.4,722,22.5,886.7,12.8,1051.2l18.7-1.9c25.5-2.6,50.7-7,75.5-12.9C134.4,730.2,298.4,463.5,537.7,297.6z"/>
			<linearGradient id="SVGID_5_" gradientUnits="userSpaceOnUse" x1="135.5517" y1="551.1277" x2="460.569" y2="750.6999">
				<stop  offset="0" style="stop-color:#414042"/>
				<stop  offset="1" style="stop-color:#000000"/>
			</linearGradient>
			<path class="st4" d="M284.5,961.3l45.2-28.7c0,0,95-56.5,158.6-166.7c0.7-1.3,1.4-2.5,2.2-3.8c0.7-1.2,1.5-2.5,2.2-3.8
				c63.6-110.2,65.1-220.7,65.1-220.7L560,484c1.5-34.4-0.1-69.2-4.8-103.4c-1.1-8.1-2.4-16.1-3.8-24.1
				C341,509.8,195.8,747.2,165.2,1019.3c9.2-3.2,18.4-6.7,27.4-10.4C224.5,995.8,255.4,979.8,284.5,961.3z"/>
			<linearGradient id="SVGID_6_" gradientUnits="userSpaceOnUse" x1="851.7769" y1="988.3671" x2="464.0379" y2="731.775">
				<stop  offset="0" style="stop-color:#000000"/>
				<stop  offset="1" style="stop-color:#414042"/>
			</linearGradient>
			<path class="st5" d="M533.8,1036.7C411.4,966.1,360.7,825,420.4,721.6c59.7-103.4,207.3-130,329.6-59.4
				c122.4,70.6,173.1,211.7,113.4,315.2C803.7,1080.8,656.1,1107.4,533.8,1036.7z"/>
		</g>
		<g>
			<linearGradient id="SVGID_7_" gradientUnits="userSpaceOnUse" x1="144.6703" y1="1674.7111" x2="492.4934" y2="1486.5441">
				<stop  offset="0" style="stop-color:#FFF200"/>
				<stop  offset="1" style="stop-color:#F7941E"/>
			</linearGradient>
			<path class="st6" d="M105.9,1201.8c-23.3-5.4-46.9-9.3-70.8-11.8l-18.7-1.9c9.7,164.5,56.5,329.2,144,481.8
				c88.4,152,207.6,275,345.2,365.6l7.7-17.2c9.1-20.4,17-41.2,23.7-62.4C294,1787.1,128.8,1514.2,105.9,1201.8z"/>
			<linearGradient id="SVGID_8_" gradientUnits="userSpaceOnUse" x1="144.0943" y1="1673.647" x2="491.9185" y2="1485.4795">
				<stop  offset="0" style="stop-color:#FFF200"/>
				<stop  offset="1" style="stop-color:#F7941E"/>
			</linearGradient>
			<path class="st7" d="M563.5,1755.3l-2.3-53.5c0,0-1.4-110.5-65.1-220.7c-0.7-1.3-1.5-2.5-2.2-3.8c-0.7-1.3-1.4-2.5-2.2-3.8
				c-63.6-110.2-158.6-166.7-158.6-166.7L288,1278c-29-18.5-60-34.5-91.9-47.6c-10.8-4.4-21.7-8.5-32.6-12.2
				c26.5,279.2,173.6,523.3,388.6,679.6c2.7-13,4.9-26.1,6.7-39.2C563.4,1824.5,565,1789.7,563.5,1755.3z"/>
			<linearGradient id="SVGID_9_" gradientUnits="userSpaceOnUse" x1="847.4797" y1="1253.3035" x2="425.5285" y2="1538.4053">
				<stop  offset="0" style="stop-color:#F7941E"/>
				<stop  offset="1" style="stop-color:#FFF200"/>
			</linearGradient>
			<path class="st8" d="M753.5,1577.1c-122.3,70.6-269.9,44.1-329.6-59.4c-59.7-103.4-8.9-244.5,113.4-315.1
				c122.3-70.6,269.9-44.1,329.6,59.4C926.6,1365.4,875.9,1506.5,753.5,1577.1z"/>
		</g>
		<g>
			<linearGradient id="SVGID_10_" gradientUnits="userSpaceOnUse" x1="1115.1289" y1="2234.5771" x2="1115.1289" y2="1829.7323">
				<stop  offset="0" style="stop-color:#BBC9E7"/>
				<stop  offset="1" style="stop-color:#0084C8"/>
			</linearGradient>
			<path class="st9" d="M676.4,2037c-14,15.5-27.1,31.7-39.4,48.7l-11.1,15.3c147.3,73.9,313.4,115.6,489.2,116.2
				c175.8-0.5,342-42.3,489.2-116.2l-11.1-15.3c-12.9-17.8-26.8-34.8-41.6-51c-133,64.6-282.3,100.9-440.1,100.9
				C955.7,2135.5,808.1,2100.1,676.4,2037z"/>
			<linearGradient id="SVGID_11_" gradientUnits="userSpaceOnUse" x1="1113.9468" y1="2234.5771" x2="1113.9468" y2="1829.7316">
				<stop  offset="0" style="stop-color:#BBC9E7"/>
				<stop  offset="1" style="stop-color:#0084C8"/>
			</linearGradient>
			<path class="st10" d="M1390.7,1910.6l-47.5-24.7c0,0-96.4-54-223.7-54c-1.5,0-2.9,0-4.4,0c-1.4,0-2.9,0-4.4,0
				c-127.3,0-223.7,54-223.7,54l-47.5,24.7c-30.5,15.9-59.8,34.7-87.1,55.8c-11.7,9-23,18.5-33.9,28.4
				c119.8,54.4,252.9,84.7,393.1,84.7c142,0,276.7-31.1,397.8-86.8c-10.2-9.1-20.7-17.9-31.6-26.3
				C1450.5,1945.3,1421.2,1926.5,1390.7,1910.6z"/>
			
				<linearGradient id="SVGID_12_" gradientUnits="userSpaceOnUse" x1="3847.0054" y1="3562.4734" x2="3872.686" y2="3074.543" gradientTransform="matrix(-1 0 0 -1 4975 4975)">
				<stop  offset="0" style="stop-color:#0084C8"/>
				<stop  offset="1" style="stop-color:#BBC9E7"/>
			</linearGradient>
			<path class="st11" d="M1331.4,1657c0,141.3-96.8,255.8-216.2,255.8c-119.4,0-216.2-114.5-216.2-255.8
				c0-141.3,96.8-255.8,216.2-255.8C1234.5,1401.2,1331.4,1515.7,1331.4,1657z"/>
		</g>
		<g>
			<linearGradient id="SVGID_13_" gradientUnits="userSpaceOnUse" x1="2080.5564" y1="1665.8391" x2="1721.3286" y2="1477.6721">
				<stop  offset="0" style="stop-color:#F7941E"/>
				<stop  offset="1" style="stop-color:#EF4136"/>
			</linearGradient>
			<path class="st12" d="M2191.6,1184c-24.9,2.6-49.6,6.8-73.9,12.5c-21.3,312.7-185.1,586.3-427,756.2c6.5,20.2,14.1,40,22.8,59.5
				l7.7,17.2c137.6-90.6,256.8-213.6,345.2-365.6c87.4-152.6,134.3-317.3,144-481.8L2191.6,1184z"/>
			<linearGradient id="SVGID_14_" gradientUnits="userSpaceOnUse" x1="2080.7122" y1="1665.543" x2="1721.4833" y2="1477.3751">
				<stop  offset="0" style="stop-color:#F7941E"/>
				<stop  offset="1" style="stop-color:#EF4136"/>
			</linearGradient>
			<path class="st13" d="M1938.8,1272l-45.2,28.7c0,0-95,56.5-158.6,166.7c-0.7,1.3-1.4,2.5-2.2,3.8c-0.7,1.2-1.5,2.5-2.2,3.8
				c-63.6,110.2-65.1,220.7-65.1,220.7l-2.3,53.5c-1.5,34.4,0.1,69.2,4.8,103.4c1.9,14.2,4.4,28.3,7.3,42.3
				c214-157.4,359.9-402.1,384.9-681.6c-10,3.5-19.8,7.2-29.6,11.2C1998.7,1237.5,1967.8,1253.5,1938.8,1272z"/>
			<linearGradient id="SVGID_15_" gradientUnits="userSpaceOnUse" x1="1799.3771" y1="1536.0886" x2="1383.1278" y2="1245.2844">
				<stop  offset="0" style="stop-color:#F7941E"/>
				<stop  offset="1" style="stop-color:#EF4136"/>
			</linearGradient>
			<path class="st14" d="M1689.5,1196.5c122.3,70.6,173.1,211.7,113.4,315.2c-59.7,103.4-207.3,130-329.6,59.4
				c-122.4-70.6-173.1-211.7-113.4-315.2C1419.5,1152.5,1567.1,1125.9,1689.5,1196.5z"/>
		</g>
		<g>
			<linearGradient id="SVGID_16_" gradientUnits="userSpaceOnUse" x1="2039.2629" y1="573.0501" x2="1737.963" y2="762.4387">
				<stop  offset="0" style="stop-color:#EE2A7B"/>
				<stop  offset="1" style="stop-color:#9E1F63"/>
			</linearGradient>
			<path class="st15" d="M2115.6,1031c23.9,5.6,48.1,9.7,72.5,12.2l18.7,1.9c-9.7-164.5-56.5-329.2-144-481.8
				c-88.4-152-207.6-275-345.2-365.6L1710,215c-11.6,25.9-21.2,52.5-28.8,79.6C1921.4,459.3,2086.7,725.3,2115.6,1031z"/>
			<linearGradient id="SVGID_17_" gradientUnits="userSpaceOnUse" x1="2039.1803" y1="572.9187" x2="1737.8799" y2="762.3076">
				<stop  offset="0" style="stop-color:#EE2A7B"/>
				<stop  offset="1" style="stop-color:#9E1F63"/>
			</linearGradient>
			<path class="st16" d="M1659.7,478l2.3,53.5c0,0,1.4,110.5,65.1,220.7c0.7,1.3,1.5,2.5,2.2,3.8c0.7,1.3,1.4,2.5,2.2,3.8
				c63.6,110.2,158.6,166.7,158.6,166.7l45.2,28.7c29,18.5,60,34.5,91.9,47.6c10,4.1,20.1,7.9,30.4,11.4
				c-32-271.7-178.5-508.4-389.8-660.6c-1.2,7-2.3,14-3.2,21C1659.8,408.8,1658.2,443.6,1659.7,478z"/>
			<linearGradient id="SVGID_18_" gradientUnits="userSpaceOnUse" x1="1765.3743" y1="725.5182" x2="1366.231" y2="976.4083">
				<stop  offset="0" style="stop-color:#EE2A7B"/>
				<stop  offset="1" style="stop-color:#9E1F63"/>
			</linearGradient>
			<path class="st17" d="M1469.7,656.1c122.3-70.6,269.9-44.1,329.6,59.4c59.7,103.4,8.9,244.5-113.4,315.1
				c-122.3,70.6-269.9,44.1-329.6-59.4C1296.6,867.9,1347.4,726.8,1469.7,656.1z"/>
		</g>
	</g>
</g>
<g id="Layer_5">
</g>
</svg>
