<?xml version="1.0" encoding="utf-8"?>
<!-- Generator: Adobe Illustrator 19.0.0, SVG Export Plug-In . SVG Version: 6.00 Build 0)  -->
<svg version="1.1" id="Layer_1" xmlns="http://www.w3.org/2000/svg" xmlns:xlink="http://www.w3.org/1999/xlink" x="0px" y="0px"
	 viewBox="0 0 1000 300" style="enable-background:new 0 0 1000 300;" xml:space="preserve">
<style type="text/css">
	.st0{opacity:0.81;}
	.st1{fill:url(#XMLID_46_);}
	.st2{fill:url(#XMLID_47_);}
	.st3{fill-rule:evenodd;clip-rule:evenodd;fill:url(#XMLID_48_);}
	.st4{fill:url(#XMLID_49_);}
	.st5{fill:url(#XMLID_50_);}
	.st6{fill:url(#XMLID_51_);}
	.st7{fill:url(#XMLID_52_);}
	.st8{fill:url(#XMLID_53_);}
	.st9{fill-rule:evenodd;clip-rule:evenodd;fill:url(#XMLID_54_);}
	.st10{fill:url(#XMLID_55_);}
	.st11{fill:url(#XMLID_56_);}
	.st12{fill-rule:evenodd;clip-rule:evenodd;fill:url(#XMLID_57_);}
	.st13{fill:url(#XMLID_58_);}
	.st14{fill:url(#XMLID_59_);}
	.st15{fill-rule:evenodd;clip-rule:evenodd;fill:url(#XMLID_60_);}
	.st16{fill:url(#XMLID_61_);}
	.st17{fill:url(#XMLID_62_);}
	.st18{fill-rule:evenodd;clip-rule:evenodd;fill:url(#XMLID_63_);}
	.st19{opacity:0.85;}
	.st20{fill:#EAEAEA;}
</style>
<g id="XMLID_20_" class="st0">
	<g id="XMLID_41_">
		<linearGradient id="XMLID_46_" gradientUnits="userSpaceOnUse" x1="120.2324" y1="37.8125" x2="118.5079" y2="64.5421">
			<stop  offset="0" style="stop-color:#8DC63F"/>
			<stop  offset="1" style="stop-color:#006838"/>
		</linearGradient>
		<path id="XMLID_18_" class="st1" d="M157.8,58.9c1.7-1.8,3.3-3.7,4.8-5.7l1-1.4c-13.3-6.7-28.3-10.5-44.2-10.5
			c-15.9,0-30.9,3.8-44.2,10.5l1,1.4c1.5,2.1,3.2,4.1,5,5.9c11.7-5.5,24.8-8.5,38.6-8.5C133.3,50.5,146.2,53.5,157.8,58.9z"/>
		<linearGradient id="XMLID_47_" gradientUnits="userSpaceOnUse" x1="121.0411" y1="37.8647" x2="119.3166" y2="64.5943">
			<stop  offset="0" style="stop-color:#8DC63F"/>
			<stop  offset="1" style="stop-color:#006838"/>
		</linearGradient>
		<path id="XMLID_17_" class="st2" d="M94.4,69l4.3,2.2c0,0,8.7,4.9,20.2,4.9c0.1,0,0.3,0,0.4,0c0.1,0,0.3,0,0.4,0
			c11.5,0,20.2-4.9,20.2-4.9l4.3-2.2c2.8-1.4,5.4-3.1,7.9-5c0.6-0.4,1.1-0.9,1.6-1.3c-10.5-4.5-22-7-34.1-7c-12.3,0-24,2.6-34.5,7.2
			c0.5,0.4,0.9,0.8,1.4,1.1C89,65.8,91.7,67.5,94.4,69z"/>
		<linearGradient id="XMLID_48_" gradientUnits="userSpaceOnUse" x1="119.3312" y1="116.4675" x2="119.3312" y2="70.0662">
			<stop  offset="0" style="stop-color:#006838"/>
			<stop  offset="1" style="stop-color:#8DC63F"/>
		</linearGradient>
		<ellipse id="XMLID_16_" class="st3" cx="119.3" cy="91.9" rx="19.5" ry="23.1"/>
	</g>
	<g id="XMLID_37_">
		<linearGradient id="XMLID_49_" gradientUnits="userSpaceOnUse" x1="31.3668" y1="89.7343" x2="60.7426" y2="107.7721">
			<stop  offset="0" style="stop-color:#414042"/>
			<stop  offset="1" style="stop-color:#000000"/>
		</linearGradient>
		<path id="XMLID_15_" class="st4" d="M67.8,66.7c-0.7-2.4-1.5-4.7-2.5-6.9l-0.7-1.6c-12.4,8.2-23.2,19.3-31.2,33
			c-7.9,13.8-12.1,28.7-13,43.5l1.7-0.2c2.3-0.2,4.6-0.6,6.8-1.2C31.3,105.8,46.2,81.7,67.8,66.7z"/>
		<linearGradient id="XMLID_50_" gradientUnits="userSpaceOnUse" x1="31.4288" y1="89.6334" x2="60.8046" y2="107.6712">
			<stop  offset="0" style="stop-color:#414042"/>
			<stop  offset="1" style="stop-color:#000000"/>
		</linearGradient>
		<path id="XMLID_14_" class="st5" d="M44.9,126.7l4.1-2.6c0,0,8.6-5.1,14.3-15.1c0.1-0.1,0.1-0.2,0.2-0.3c0.1-0.1,0.1-0.2,0.2-0.3
			c5.8-10,5.9-20,5.9-20l0.2-4.8c0.1-3.1,0-6.3-0.4-9.3c-0.1-0.7-0.2-1.5-0.3-2.2c-19,13.9-32.1,35.3-34.9,59.9
			c0.8-0.3,1.7-0.6,2.5-0.9C39.5,129.8,42.3,128.4,44.9,126.7z"/>
		<linearGradient id="XMLID_51_" gradientUnits="userSpaceOnUse" x1="96.163" y1="129.1521" x2="61.1182" y2="105.9607">
			<stop  offset="0" style="stop-color:#000000"/>
			<stop  offset="1" style="stop-color:#414042"/>
		</linearGradient>
		<path id="XMLID_13_" class="st6" d="M67.4,133.5c-11.1-6.4-15.6-19.1-10.2-28.5c5.4-9.3,18.7-11.8,29.8-5.4
			c11.1,6.4,15.6,19.1,10.2,28.5C91.8,137.5,78.5,139.9,67.4,133.5z"/>
	</g>
	<g id="XMLID_33_">
		<linearGradient id="XMLID_52_" gradientUnits="userSpaceOnUse" x1="32.2529" y1="191.1856" x2="63.69" y2="174.1786">
			<stop  offset="0" style="stop-color:#FFF200"/>
			<stop  offset="1" style="stop-color:#F7941E"/>
		</linearGradient>
		<path id="XMLID_12_" class="st7" d="M28.7,148.4c-2.1-0.5-4.2-0.8-6.4-1.1l-1.7-0.2c0.9,14.9,5.1,29.8,13,43.5
			c8,13.7,18.8,24.9,31.2,33l0.7-1.6c0.8-1.8,1.5-3.7,2.1-5.6C45.7,201.3,30.8,176.7,28.7,148.4z"/>
		<linearGradient id="XMLID_53_" gradientUnits="userSpaceOnUse" x1="32.2009" y1="191.0894" x2="63.6381" y2="174.0824">
			<stop  offset="0" style="stop-color:#FFF200"/>
			<stop  offset="1" style="stop-color:#F7941E"/>
		</linearGradient>
		<path id="XMLID_11_" class="st8" d="M70.1,198.5l-0.2-4.8c0,0-0.1-10-5.9-20c-0.1-0.1-0.1-0.2-0.2-0.3c-0.1-0.1-0.1-0.2-0.2-0.3
			c-5.8-10-14.3-15.1-14.3-15.1l-4.1-2.6c-2.6-1.7-5.4-3.1-8.3-4.3c-1-0.4-2-0.8-2.9-1.1c2.4,25.2,15.7,47.3,35.1,61.4
			c0.2-1.2,0.4-2.4,0.6-3.5C70.1,204.7,70.2,201.6,70.1,198.5z"/>
		<linearGradient id="XMLID_54_" gradientUnits="userSpaceOnUse" x1="95.7746" y1="153.0977" x2="57.6376" y2="178.866">
			<stop  offset="0" style="stop-color:#F7941E"/>
			<stop  offset="1" style="stop-color:#FFF200"/>
		</linearGradient>
		<path id="XMLID_10_" class="st9" d="M87.3,182.4c-11.1,6.4-24.4,4-29.8-5.4c-5.4-9.3-0.8-22.1,10.2-28.5c11.1-6.4,24.4-4,29.8,5.4
			C102.9,163.2,98.3,176,87.3,182.4z"/>
	</g>
	<g id="XMLID_29_">
		<linearGradient id="XMLID_55_" gradientUnits="userSpaceOnUse" x1="119.9654" y1="241.7877" x2="119.9654" y2="205.1968">
			<stop  offset="0" style="stop-color:#BBC9E7"/>
			<stop  offset="1" style="stop-color:#0084C8"/>
		</linearGradient>
		<path id="XMLID_9_" class="st10" d="M80.3,223.9c-1.3,1.4-2.5,2.9-3.6,4.4l-1,1.4c13.3,6.7,28.3,10.5,44.2,10.5
			c15.9,0,30.9-3.8,44.2-10.5l-1-1.4c-1.2-1.6-2.4-3.1-3.8-4.6c-12,5.8-25.5,9.1-39.8,9.1C105.6,232.8,92.2,229.6,80.3,223.9z"/>
		<linearGradient id="XMLID_56_" gradientUnits="userSpaceOnUse" x1="119.8585" y1="241.7877" x2="119.8585" y2="205.1967">
			<stop  offset="0" style="stop-color:#BBC9E7"/>
			<stop  offset="1" style="stop-color:#0084C8"/>
		</linearGradient>
		<path id="XMLID_8_" class="st11" d="M144.9,212.5l-4.3-2.2c0,0-8.7-4.9-20.2-4.9c-0.1,0-0.3,0-0.4,0c-0.1,0-0.3,0-0.4,0
			c-11.5,0-20.2,4.9-20.2,4.9l-4.3,2.2c-2.8,1.4-5.4,3.1-7.9,5c-1.1,0.8-2.1,1.7-3.1,2.6c10.8,4.9,22.9,7.7,35.5,7.7
			c12.8,0,25-2.8,36-7.8c-0.9-0.8-1.9-1.6-2.9-2.4C150.3,215.6,147.6,213.9,144.9,212.5z"/>
		
			<linearGradient id="XMLID_57_" gradientUnits="userSpaceOnUse" x1="879.8718" y1="133.5113" x2="882.1929" y2="89.4109" gradientTransform="matrix(-1 0 0 -1 1001 301)">
			<stop  offset="0" style="stop-color:#0084C8"/>
			<stop  offset="1" style="stop-color:#BBC9E7"/>
		</linearGradient>
		<ellipse id="XMLID_7_" class="st12" cx="120" cy="189.6" rx="19.5" ry="23.1"/>
	</g>
	<g id="XMLID_25_">
		<linearGradient id="XMLID_58_" gradientUnits="userSpaceOnUse" x1="207.2231" y1="190.3837" x2="174.7552" y2="173.3767">
			<stop  offset="0" style="stop-color:#F7941E"/>
			<stop  offset="1" style="stop-color:#EF4136"/>
		</linearGradient>
		<path id="XMLID_6_" class="st13" d="M217.3,146.8c-2.3,0.2-4.5,0.6-6.7,1.1c-1.9,28.3-16.7,53-38.6,68.3c0.6,1.8,1.3,3.6,2.1,5.4
			l0.7,1.6c12.4-8.2,23.2-19.3,31.2-33c7.9-13.8,12.1-28.7,13-43.5L217.3,146.8z"/>
		<linearGradient id="XMLID_59_" gradientUnits="userSpaceOnUse" x1="207.2372" y1="190.357" x2="174.7692" y2="173.3499">
			<stop  offset="0" style="stop-color:#F7941E"/>
			<stop  offset="1" style="stop-color:#EF4136"/>
		</linearGradient>
		<path id="XMLID_5_" class="st14" d="M194.4,154.8l-4.1,2.6c0,0-8.6,5.1-14.3,15.1c-0.1,0.1-0.1,0.2-0.2,0.3
			c-0.1,0.1-0.1,0.2-0.2,0.3c-5.8,10-5.9,20-5.9,20l-0.2,4.8c-0.1,3.1,0,6.3,0.4,9.3c0.2,1.3,0.4,2.6,0.7,3.8
			c19.3-14.2,32.5-36.3,34.8-61.6c-0.9,0.3-1.8,0.6-2.7,1C199.8,151.7,197,153.1,194.4,154.8z"/>
		<linearGradient id="XMLID_60_" gradientUnits="userSpaceOnUse" x1="181.8094" y1="178.6566" x2="144.1878" y2="152.373">
			<stop  offset="0" style="stop-color:#F7941E"/>
			<stop  offset="1" style="stop-color:#EF4136"/>
		</linearGradient>
		<path id="XMLID_4_" class="st15" d="M171.9,148c11.1,6.4,15.6,19.1,10.2,28.5c-5.4,9.3-18.7,11.8-29.8,5.4
			c-11.1-6.4-15.6-19.1-10.2-28.5C147.5,144,160.8,141.6,171.9,148z"/>
	</g>
	<g id="XMLID_21_">
		<linearGradient id="XMLID_61_" gradientUnits="userSpaceOnUse" x1="203.4909" y1="91.6148" x2="176.2587" y2="108.7322">
			<stop  offset="0" style="stop-color:#EE2A7B"/>
			<stop  offset="1" style="stop-color:#9E1F63"/>
		</linearGradient>
		<path id="XMLID_3_" class="st16" d="M210.4,133c2.2,0.5,4.3,0.9,6.6,1.1l1.7,0.2c-0.9-14.9-5.1-29.8-13-43.5
			c-8-13.7-18.8-24.9-31.2-33l-0.7,1.6c-1,2.3-1.9,4.7-2.6,7.2C192.8,81.3,207.8,105.4,210.4,133z"/>
		<linearGradient id="XMLID_62_" gradientUnits="userSpaceOnUse" x1="203.4834" y1="91.6029" x2="176.2511" y2="108.7203">
			<stop  offset="0" style="stop-color:#EE2A7B"/>
			<stop  offset="1" style="stop-color:#9E1F63"/>
		</linearGradient>
		<path id="XMLID_2_" class="st17" d="M169.2,83l0.2,4.8c0,0,0.1,10,5.9,20c0.1,0.1,0.1,0.2,0.2,0.3c0.1,0.1,0.1,0.2,0.2,0.3
			c5.8,10,14.3,15.1,14.3,15.1l4.1,2.6c2.6,1.7,5.4,3.1,8.3,4.3c0.9,0.4,1.8,0.7,2.7,1c-2.9-24.6-16.1-45.9-35.2-59.7
			c-0.1,0.6-0.2,1.3-0.3,1.9C169.2,76.8,169.1,79.9,169.2,83z"/>
		<linearGradient id="XMLID_63_" gradientUnits="userSpaceOnUse" x1="178.7362" y1="105.3952" x2="142.6606" y2="128.0713">
			<stop  offset="0" style="stop-color:#EE2A7B"/>
			<stop  offset="1" style="stop-color:#9E1F63"/>
		</linearGradient>
		<path id="XMLID_1_" class="st18" d="M152,99.1c11.1-6.4,24.4-4,29.8,5.4c5.4,9.3,0.8,22.1-10.2,28.5c-11.1,6.4-24.4,4-29.8-5.4
			C136.4,118.3,141,105.5,152,99.1z"/>
	</g>
</g>
<g id="XMLID_22_" class="st19">
	<path id="XMLID_23_" class="st20" d="M360.1,184.3c-12.8,35.1-41.4,42.4-64,42.4c-33.2,0-49.8-23.8-49.8-48.6
		c0-23.1,14.4-47.2,43.6-53.2C273.4,116,266,102,266,88.3c0-21.9,19.3-43.6,53.4-43.6c22.4,0,44.3,8.9,44.3,32.2
		c0,12.8-4.6,22.1-16.8,22.1c-3.9,0-9.1-1-13.7-6.3c6-1.7,10.6-13.7,10.6-19.7c0-3.9-0.5-17.8-15.9-17.8
		c-17.6,0-29.4,13.5-29.4,29.6c0,14,9.1,29.6,31.8,39.7c-30.6,12.5-41.9,31.8-41.9,48.4c0,17.6,12.8,32,28.2,32
		c18.5,0,29.1-7.7,38-23.1L360.1,184.3z"/>
	<path id="XMLID_26_" class="st20" d="M448.4,121.8c0,37.5-19,103.5-67.6,103.5c-18.5,0-29.8-8.2-29.8-26.2c0-3.6,0.2-7.7,1.2-12.3
		l17.3-81.8h34.7l-17.3,81.8c-0.7,3.4-1.2,6.3-1.2,8.9c0,4.6,2.2,7.7,9.1,7.7c23.6,0,39.7-52.7,39.7-78.9c-1.4,0.5-3.6,1-5.1,1
		c-7,0-10.1-6.7-10.1-13.5c0-5.1,5.8-11.8,13.7-11.8C443.4,100.1,448.4,109.2,448.4,121.8z"/>
	<path id="XMLID_28_" class="st20" d="M502.6,207.9c11.8,0,32-14,40.4-31.8h10.8c-13.7,24.8-36.8,49.1-67.9,49.1
		c-23.1,0-35.6-17.6-35.6-38.3c0-30.6,13-84.2,56.8-84.2c19.7,0,30.8,8.2,30.8,25c0,29.4-31.5,46.2-54.4,49.1
		c-0.5,3.9-0.7,7.5-0.7,10.3C482.8,203.1,493.2,207.9,502.6,207.9z M515.1,115.5c-13.5,0-24.5,27.2-29.6,49.8
		c22.1-0.2,37.8-19.3,38-36.3C523.5,123.9,522.3,115.5,515.1,115.5z"/>
	<path id="XMLID_32_" class="st20" d="M638.8,186.7c-0.7,2.6-1.2,5.3-1.2,7.7c0,5.3,2.6,8.9,12,8.9c9.6,0,13.2-7.5,22.9-15.2h8.2
		c-11.1,11.1-29.4,37.1-48.1,37.1s-29.8-8.2-29.8-26.2c0-3.9,0.5-7.7,1.4-12.3l9.1-43.3c0.5-2.2,0.7-4.3,0.7-6.3
		c0-8.7-4.6-14.2-11.1-14.2c-5.8,0-10.1,1.7-15.2,5.1l-20.5,97.2h-34.7l25.5-120.3h34.7l-2.9,13c9.9-7.2,20.9-13,31.5-13
		c13,0,27.7,14,27.7,30.1c0,1.9,0,3.9-0.5,5.8L638.8,186.7z"/>
	<path id="XMLID_35_" class="st20" d="M773.5,104.9l-22.6,106.6c15.4-7.9,29.1-18.8,37.1-36.8l-1,19c-3.1,15.6-20,24.5-39,31.5
		l-4.1,19.3c-7.2,34.4-27.4,40.9-43.3,40.9c-14.7,0-27-7.7-27-23.3c0-19.7,17.6-27.7,39.2-35.6l2.4-10.8
		c-7.2,6.5-16.6,11.6-27.7,11.6c-23.1,0-29.8-19.5-29.8-33.7c0-33.2,12.8-88.3,59.4-88.3c8.7,0,15.6,4.8,19,11.3l2.6-11.6H773.5z
		 M695.1,266.6c4.8,0,11.1-7.2,14-21.4l1.4-7.2c-13.7,5.3-23.6,11.3-23.6,20.7C686.9,262.1,689.8,266.6,695.1,266.6z M687.4,188.9
		c0,11.6,7,15.2,17.6,15.2c4.8,0,9.9-3.6,14.4-8.4l14.2-66.7c-3.9-7.2-9.6-10.3-13.7-10.3C696.5,118.6,687.4,168.2,687.4,188.9z"/>
	<path id="XMLID_40_" class="st20" d="M830.8,207.9c11.8,0,32-14,40.4-31.8h10.8c-13.7,24.8-36.8,49.1-67.9,49.1
		c-23.1,0-35.6-17.6-35.6-38.3c0-30.6,13-84.2,56.8-84.2c19.7,0,30.8,8.2,30.8,25c0,29.4-31.5,46.2-54.4,49.1
		c-0.5,3.9-0.7,7.5-0.7,10.3C811.1,203.1,821.4,207.9,830.8,207.9z M843.3,115.5c-13.5,0-24.5,27.2-29.6,49.8
		c22.1-0.2,37.8-19.3,38-36.3C851.8,123.9,850.5,115.5,843.3,115.5z"/>
	<path id="XMLID_44_" class="st20" d="M921.1,104.9l-2.6,12c8.7-6.7,18.3-12,28.4-12c10.8,0,17.3,6.3,17.3,15.4
		c0,8.4-6.3,18.8-18,18.8c-13.5,0-6.7-15.9-14-15.9c-7.2,0-11.1,2.6-16.6,7.7l-20,94.3h-34.7l25.5-120.3H921.1z"/>
</g>
</svg>
